<?xml version="1.0" standalone="no"?>
<!DOCTYPE svg PUBLIC "-//W3C//DTD SVG 20010904//EN"
 "http://www.w3.org/TR/2001/REC-SVG-20010904/DTD/svg10.dtd">
<svg version="1.0" xmlns="http://www.w3.org/2000/svg"
 width="1601.000000pt" height="1601.000000pt" viewBox="0 0 1601.000000 1601.000000"
 preserveAspectRatio="xMidYMid meet">
<metadata>
Created by potrace 1.11, written by Peter Selinger 2001-2013
</metadata>
<g transform="translate(0.000000,1601.000000) scale(0.100000,-0.100000)"
fill="#000000" stroke="none">
<path d="M7565 15990 c-1126 -73 -2139 -340 -3120 -825 -718 -354 -1331 -778
-1892 -1307 -500 -472 -852 -886 -1213 -1428 -871 -1307 -1340 -2855 -1340
-4425 0 -1387 371 -2784 1058 -3985 294 -515 700 -1065 1082 -1467 263 -276
587 -579 810 -759 1207 -973 2620 -1565 4155 -1743 340 -40 455 -45 885 -46
431 0 545 6 890 46 1659 190 3149 847 4408 1945 182 159 538 514 696 694 1183
1351 1860 2959 1998 4750 19 251 16 949 -5 1180 -58 619 -146 1095 -302 1630
-791 2711 -2954 4798 -5705 5503 -414 107 -867 182 -1333 223 -206 18 -872 26
-1072 14z m37 -2962 c12 -55 381 -1374 388 -1389 8 -14 23 -14 161 7 358 54
731 75 969 55 333 -29 624 -122 861 -277 110 -71 283 -248 363 -371 188 -286
298 -655 297 -990 -1 -348 -112 -621 -371 -910 l-91 -103 118 0 c139 0 343
-22 463 -50 283 -67 478 -174 670 -369 126 -127 201 -231 278 -386 174 -351
273 -851 242 -1232 -24 -302 -95 -524 -251 -780 -157 -258 -503 -557 -882
-762 -236 -127 -656 -310 -899 -390 -54 -18 -100 -37 -103 -42 -4 -5 10 -73
30 -151 33 -128 340 -1257 349 -1284 3 -7 -152 -54 -426 -128 -236 -65 -431
-116 -433 -114 -11 14 -80 255 -260 908 -75 272 -139 498 -143 501 -8 7 -671
-166 -684 -179 -5 -5 35 -168 92 -378 215 -783 280 -1024 280 -1038 0 -18 20
-12 -482 -150 -251 -69 -375 -99 -379 -92 -4 6 -89 308 -188 671 -211 765
-208 755 -228 755 -17 0 -416 -106 -1182 -315 -294 -80 -540 -145 -547 -145
-16 0 -19 24 -115 964 -6 59 -7 112 -2 116 4 5 46 18 93 30 225 57 559 154
602 176 144 73 199 198 165 375 -9 41 -158 592 -332 1225 -174 632 -399 1453
-501 1824 -102 371 -199 718 -215 771 -48 159 -116 244 -253 313 -59 30 -66
31 -181 30 -141 -1 -176 -8 -543 -111 -168 -47 -276 -73 -282 -67 -5 5 -64
211 -131 457 -101 368 -120 450 -109 457 16 10 213 66 1115 315 330 92 604
170 608 175 10 9 -29 162 -206 810 -148 542 -164 607 -151 620 14 14 838 238
846 231 5 -4 91 -306 192 -672 102 -366 190 -677 195 -692 l10 -26 83 23 c311
86 591 172 595 182 2 7 -79 319 -182 694 -102 375 -185 684 -183 685 10 10
811 237 859 244 4 1 9 -9 11 -21z"/>
<path d="M7920 10473 c-186 -11 -433 -57 -695 -129 -152 -42 -498 -144 -502
-148 -4 -4 109 -424 298 -1110 138 -499 170 -606 184 -624 1 -2 58 11 126 28
911 230 1390 478 1599 830 104 175 122 375 53 594 -44 142 -97 231 -192 326
-194 193 -442 259 -871 233z"/>
<path d="M8995 7924 c-22 -2 -89 -9 -149 -14 -211 -21 -516 -81 -811 -161
-202 -55 -578 -168 -587 -177 -4 -4 8 -64 27 -132 223 -816 466 -1704 475
-1738 13 -52 -19 -55 300 30 245 65 443 125 644 194 656 225 1068 510 1216
840 53 117 63 173 57 329 -5 156 -29 252 -93 375 -122 234 -376 396 -687 439
-84 12 -330 21 -392 15z"/>
</g>
</svg>
